<svg width="116" height="27" viewBox="0 0 116 27" fill="none" xmlns="http://www.w3.org/2000/svg"><path fill-rule="evenodd" clip-rule="evenodd" d="M23.3223 0.192871C23.0607 0.192871 22.8012 0.241979 22.5447 0.343264C22.1038 0.527418 21.7571 0.828203 21.5065 1.24869L12.7211 16.2429L3.9336 1.24869C3.68397 0.828203 3.33727 0.527418 2.89646 0.343264C2.63891 0.241979 2.38037 0.192871 2.11885 0.192871C1.93263 0.192871 1.74541 0.218448 1.5562 0.268579C1.09162 0.404648 0.7152 0.669626 0.428922 1.06249C0.142644 1.44512 0 1.88197 0 2.37408V24.5677C0 25.1703 0.209013 25.6819 0.626048 26.1013C1.0312 26.531 1.5255 26.7479 2.11093 26.7479C2.69339 26.7479 3.19463 26.531 3.61166 26.1013C4.02969 25.6819 4.23771 25.1703 4.23771 24.5677V10.2027C4.23771 10.2027 10.9895 21.7092 11.0232 21.7665C11.2154 22.1042 11.5244 22.3272 11.8622 22.4868C12.1237 22.6116 12.414 22.6812 12.7211 22.6812C13.0262 22.6812 13.3174 22.6116 13.5779 22.4868C13.9167 22.3272 14.2228 22.097 14.4179 21.7645C14.4447 21.7205 21.2034 10.2027 21.2034 10.2027V24.5677C21.2034 25.1703 21.4124 25.6819 21.8285 26.1013C22.2455 26.531 22.7467 26.7479 23.3312 26.7479C23.9146 26.7479 24.4099 26.531 24.8141 26.1013C25.2311 25.6819 25.4401 25.1703 25.4401 24.5677V2.37408C25.4401 1.88197 25.2975 1.44512 25.0112 1.06249C24.7249 0.669626 24.3495 0.404648 23.8839 0.268579C23.6967 0.218448 23.5085 0.192871 23.3223 0.192871ZM44.9726 0.192871C43.7522 0.192871 43.3025 0.899819 43.0529 1.44205L32.9004 23.6367C32.6498 24.18 32.622 24.7376 32.8182 25.3105C33.0143 25.8834 33.3749 26.2998 33.8999 26.5597C34.4239 26.8185 34.9638 26.8461 35.5185 26.6446C36.0722 26.441 36.4734 26.0676 36.724 25.5253L44.9736 7.4997L53.2212 25.5253C53.4718 26.0676 53.875 26.441 54.4287 26.6446C54.9824 26.8461 55.5213 26.8185 56.0453 26.5597C56.5703 26.2998 56.9309 25.8834 57.127 25.3105C57.3232 24.7376 57.2964 24.18 57.0448 23.6367L46.8943 1.44205C46.6437 0.899819 46.0791 0.192871 44.9726 0.192871ZM76.2362 0.192871C72.6988 0.192871 69.6726 1.49014 67.1545 4.08569C64.6493 6.69352 63.3972 9.82925 63.3972 13.5113C63.3972 17.175 64.6493 20.3107 67.1545 22.9185C69.6726 25.5141 72.6988 26.8113 76.2362 26.8113C79.5566 26.8113 82.4461 25.6563 84.9038 23.3462C85.3357 22.9369 85.5635 22.4275 85.5873 21.8187C85.61 21.21 85.4258 20.6841 85.0286 20.235C84.6343 19.7756 84.143 19.5342 83.5546 19.5096C82.9672 19.4841 82.458 19.6774 82.0261 20.0856C80.3956 21.6274 78.467 22.3957 76.2362 22.3957C73.8746 22.3957 71.8538 21.5271 70.1758 19.7889C68.4978 18.0497 67.6587 15.9585 67.6587 13.4919C67.6587 11.0457 68.4978 8.9535 70.1758 7.21529C71.8538 5.47605 73.8746 4.60746 76.2362 4.60746C78.467 4.60746 80.3956 5.37681 82.0261 6.91757C82.458 7.3268 82.9672 7.51914 83.5546 7.49561C84.143 7.47003 84.6343 7.22756 85.0286 6.76922C85.4258 6.32111 85.61 5.79423 85.5873 5.1855C85.5635 4.57574 85.3357 4.06727 84.9038 3.65804C82.4461 1.3469 79.5566 0.192871 76.2362 0.192871ZM113.317 0.192871C112.741 0.192871 112.249 0.405672 111.838 0.831272C111.426 1.2579 111.222 1.76944 111.222 2.36589V11.5675H98.2786V2.36589C98.2786 1.76944 98.0785 1.2579 97.6803 0.831272C97.2692 0.405672 96.7759 0.192871 96.2014 0.192871C95.6248 0.192871 95.1325 0.405672 94.7224 0.831272C94.3113 1.2579 94.1053 1.76944 94.1053 2.36589V24.6383C94.1053 25.2348 94.3113 25.7473 94.7224 26.1719C95.1325 26.5985 95.6248 26.8113 96.2014 26.8113C96.7759 26.8113 97.2692 26.5985 97.6803 26.1719C98.0785 25.7473 98.2786 25.2348 98.2786 24.6383V15.8951H111.222V24.6383C111.222 25.2348 111.426 25.7473 111.838 26.1719C112.249 26.5985 112.741 26.8113 113.317 26.8113C113.891 26.8113 114.384 26.5985 114.796 26.1719C115.207 25.7473 115.413 25.2348 115.413 24.6383V2.36589C115.413 1.76944 115.207 1.2579 114.796 0.831272C114.384 0.405672 113.891 0.192871 113.317 0.192871Z" fill="white"></path></svg>